 http://img217.imageshack.us/img217/5200/soulsurferofficialmovie.jpg

Country.......: USA
Genre.........: Drama, Action, Sport
Date release..: 08.04.2011 [World]
Director......: Sean McNamara
Writers.......: Michael Berk, Sean McNamara
Duration......: 102 min.
More..........: http://www.imdb.com/title/tt1596346
Trailer.......: http://www.imdb.com/video/imdb/vi1864210969
Trailer.......:

Pilot :
A teenage surfer girl summons the courage to go back into the ocean after losing an arm in a shark attack.

Cats :
AnnaSophia Robb   	 ...  	Bethany Hamilton
Dennis Quaid 	... 	Tom Hamilton
Helen Hunt 	... 	Cheri Hamilton
Carrie Underwood 	... 	Sarah Hill
Ross Thomas 	... 	Noah Hamilton
Lorraine Nicholson 	... 	Alana Blanchard
Kevin Sorbo 	... 	Holt Blanchard
Cody Gomes 	... 	Keoki
Sonya Balmores 	... 	Malina Birch
Chris Brochu 	... 	Timmy
Christie Brooke 	... 	Bethany Fan
David Chokachi 	... 	Paramedic
Kelly Crean 	... 	Vicky / Reporter
Yasmin Dar 	... 	NSSA Reporter #1
Irie Driscoll 	... 	Young Bethany Hamilton 

Data Technical :
!!! SAMPLE !!!
Audio.....: English
Subtitles.: None
Format                           : AVI
Format/Info                      : Audio Video Interleave
Format profile                   : OpenDML
File size                        : 1.31 GiB
Duration                         : 1h 42mn
Overall bit rate                 : 1 828 Kbps
Writing library                  : MPlayer
Video
ID                               : 0
Format                           : MPEG-4 Visual
Format profile                   : Advanced Simple@L5
Format settings, BVOP            : Yes
Format settings, QPel            : No
Format settings, GMC             : No warppoints
Format settings, Matrix          : Custom
Codec ID                         : XVID
Codec ID/Hint                    : XviD
Duration                         : 1h 42mn
Bit rate                         : 1 694 Kbps
Width                            : 720 pixels
Height                           : 304 pixels
Display aspect ratio             : 2.35:1
Frame rate                       : 23.976 fps
Color space                      : YUV
Chroma subsampling               : 4:2:0
Bit depth                        : 8 bits
Scan type                        : Progressive
Bits/(Pixel*Frame)               : 0.323
Stream size                      : 1.21 GiB (93%)
Writing library                  : XviD 1.2.1 (UTC 2008-12-04)
Audio
ID                               : 1
Format                           : MPEG Audio
Format version                   : Version 1
Format profile                   : Layer 3
Codec ID                         : 55
Codec ID/Hint                    : MP3
Duration                         : 1h 42mn
Bit rate mode                    : Constant
Bit rate                         : 128 Kbps
Channel(s)                       : 2 channels
Sampling rate                    : 44.1 KHz
Stream size                      : 93.8 MiB (7%)
Alignment                        : Split accross interleaves
Interleave, duration             : 499 ms (11.97 video frames)
Interleave, preload duration     : 500 ms

Screen : 
http://img84.imageshack.us/img84/9633/soulsurfer2011s1.jpg 
http://img713.imageshack.us/img713/9061/soulsurfer2011s2.jpg 
http://img140.imageshack.us/img140/6365/soulsurfer2011s3.jpg 
http://img695.imageshack.us/img695/7024/soulsurfer2011s4.jpg 
http://img577.imageshack.us/img577/1991/soulsurfer2011s5.jpg